<?xml version="1.0" standalone="no"?>
<!DOCTYPE svg PUBLIC "-//W3C//DTD SVG 20010904//EN"
 "http://www.w3.org/TR/2001/REC-SVG-20010904/DTD/svg10.dtd">
<svg version="1.0" xmlns="http://www.w3.org/2000/svg"
 width="512.000000pt" height="512.000000pt" viewBox="0 0 512.000000 512.000000"
 preserveAspectRatio="xMidYMid meet">
<metadata>
Created by potrace 1.14, written by Peter Selinger 2001-2017
</metadata>
<g transform="translate(0.000000,512.000000) scale(0.100000,-0.100000)"
fill="#000000" stroke="none">
<path d="M2366 4862 c-2 -1 -28 -5 -59 -7 -89 -9 -165 -21 -237 -37 -25 -5
-56 -12 -70 -14 -45 -9 -264 -85 -330 -116 -92 -42 -193 -92 -205 -101 -5 -4
-57 -38 -115 -76 -126 -81 -217 -156 -336 -277 -114 -115 -154 -161 -154 -174
0 -5 -3 -10 -7 -10 -5 0 -21 -20 -38 -45 -16 -24 -33 -45 -37 -45 -5 0 -8 -6
-8 -13 0 -7 -9 -23 -20 -35 -11 -12 -20 -23 -20 -26 0 -2 -19 -35 -42 -72 -33
-56 -118 -223 -123 -244 -1 -3 -7 -18 -14 -35 -15 -39 -20 -54 -21 -60 0 -3
-7 -22 -16 -43 -8 -20 -17 -44 -20 -52 -18 -67 -55 -221 -59 -245 -3 -16 -8
-37 -10 -45 -5 -17 -15 -103 -21 -175 -10 -114 -4 -343 10 -432 2 -16 7 -48
11 -73 40 -266 175 -611 323 -825 57 -82 105 -148 132 -180 45 -54 251 -259
291 -290 22 -16 45 -35 52 -40 92 -77 244 -168 362 -220 100 -43 117 -57 107
-89 -8 -25 -7 -97 2 -146 10 -50 29 -74 78 -100 24 -12 66 -35 93 -50 28 -15
88 -48 135 -72 106 -56 176 -95 216 -119 31 -19 98 -20 261 -3 32 4 81 7 108
9 28 1 84 5 125 8 41 4 125 9 185 12 61 3 146 8 190 10 44 3 112 7 152 9 40 3
105 7 145 11 40 3 106 8 146 10 40 2 79 9 87 15 18 15 9 37 -19 44 -33 8 -45
44 -42 122 3 79 10 101 42 129 13 12 24 35 26 55 2 29 -1 37 -20 45 -14 6 -26
22 -29 38 -3 15 -9 29 -12 32 -4 2 -5 25 -2 50 6 45 8 47 71 82 36 19 72 41
81 49 8 8 20 14 26 14 6 0 13 3 15 8 2 4 29 27 61 51 155 115 350 327 483 525
45 66 120 208 172 327 23 50 92 253 97 284 2 11 6 29 8 40 12 47 25 111 25
125 1 14 4 32 22 130 12 65 4 525 -10 560 -1 3 -2 9 -1 13 1 5 -3 25 -8 45 -6
20 -12 48 -15 62 -6 31 -40 159 -59 220 -23 74 -85 222 -127 301 -22 41 -50
93 -62 117 -12 23 -26 42 -30 42 -4 0 -8 5 -8 10 0 9 -71 114 -100 147 -5 7
-10 15 -10 18 0 3 -8 13 -17 24 -10 10 -47 51 -83 91 -36 41 -87 94 -114 119
-26 25 -58 56 -69 69 -11 12 -24 22 -28 22 -4 0 -23 14 -41 30 -39 37 -204
150 -217 150 -5 0 -11 3 -13 8 -9 21 -274 150 -383 187 -184 61 -329 92 -510
111 -60 6 -344 11 -349 6z"/>
</g>
</svg>
